#usda 1.0
(
    defaultPrim = "SICK_S300"
)

def OmniLidar "SICK_S300" (
    prepend apiSchemas = ["OmniSensorGenericLidarCoreAPI"]
)
{
    custom float[] omni:sensor:Core:emitterState:s001:azimuthDeg = [-120, -119.55556, -119.111115, -118.666664, -118.22222, -117.77778, -117.333336, -116.888885, -116.44444, -116, -115.55556, -115.111115, -114.666664, -114.22222, -113.77778, -113.333336, -112.888885, -112.44444, -112, -111.55556, -111.111115, -110.666664, -110.22222, -109.77778, -109.333336, -108.888885, -108.44444, -108, -107.55556, -107.111115, -106.666664, -106.22222, -105.77778, -105.333336, -104.888885, -104.44444, -104, -103.55556, -103.111115, -102.666664, -102.22222, -101.77778, -101.333336, -100.888885, -100.44444, -100, -99.55556, -99.111115, -98.666664, -98.22222, -97.77778, -97.333336, -96.888885, -96.44444, -96, -95.55556, -95.111115, -94.666664, -94.22222, -93.77778, -93.333336, -92.888885, -92.44444, -92, -91.55556, -91.111115, -90.666664, -90.22222, -89.77778, -89.333336, -88.888885, -88.44444, -88, -87.55556, -87.111115, -86.666664, -86.22222, -85.77778, -85.333336, -84.888885, -84.44444, -84, -83.55556, -83.111115, -82.666664, -82.22222, -81.77778, -81.333336, -80.888885, -80.44444, -80, -79.55556, -79.111115, -78.666664, -78.22222, -77.77778, -77.333336, -76.888885, -76.44444, -76, -75.55556, -75.111115, -74.666664, -74.22222, -73.77778, -73.333336, -72.888885, -72.44444, -72, -71.55556, -71.111115, -70.666664, -70.22222, -69.77778, -69.333336, -68.888885, -68.44444, -68, -67.55556, -67.111115, -66.666664, -66.22222, -65.77778, -65.333336, -64.888885, -64.44444, -64, -63.555557, -63.11111, -62.666668, -62.22222, -61.77778, -61.333332, -60.88889, -60.444443, -60, -59.555557, -59.11111, -58.666668, -58.22222, -57.77778, -57.333332, -56.88889, -56.444443, -56, -55.555557, -55.11111, -54.666668, -54.22222, -53.77778, -53.333332, -52.88889, -52.444443, -52, -51.555557, -51.11111, -50.666668, -50.22222, -49.77778, -49.333332, -48.88889, -48.444443, -48, -47.555557, -47.11111, -46.666668, -46.22222, -45.77778, -45.333332, -44.88889, -44.444443, -44, -43.555557, -43.11111, -42.666668, -42.22222, -41.77778, -41.333332, -40.88889, -40.444443, -40, -39.555557, -39.11111, -38.666668, -38.22222, -37.77778, -37.333332, -36.88889, -36.444443, -36, -35.555557, -35.11111, -34.666668, -34.22222, -33.77778, -33.333332, -32.88889, -32.444443, -32, -31.555555, -31.11111, -30.666666, -30.222221, -29.777779, -29.333334, -28.88889, -28.444445, -28, -27.555555, -27.11111, -26.666666, -26.222221, -25.777779, -25.333334, -24.88889, -24.444445, -24, -23.555555, -23.11111, -22.666666, -22.222221, -21.777779, -21.333334, -20.88889, -20.444445, -20, -19.555555, -19.11111, -18.666666, -18.222221, -17.777779, -17.333334, -16.88889, -16.444445, -16, -15.555555, -15.111111, -14.666667, -14.222222, -13.777778, -13.333333, -12.888889, -12.444445, -12, -11.555555, -11.111111, -10.666667, -10.222222, -9.777778, -9.333333, -8.888889, -8.444445, -8, -7.5555553, -7.111111, -6.6666665, -6.2222223, -5.7777777, -5.3333335, -4.888889, -4.4444447, -4, -3.5555556, -3.1111112, -2.6666667, -2.2222223, -1.7777778, -1.3333334, -0.8888889, -0.44444445, 0, 0.44444445, 0.8888889, 1.3333334, 1.7777778, 2.2222223, 2.6666667, 3.1111112, 3.5555556, 4, 4.4444447, 4.888889, 5.3333335, 5.7777777, 6.2222223, 6.6666665, 7.111111, 7.5555553, 8, 8.444445, 8.888889, 9.333333, 9.777778, 10.222222, 10.666667, 11.111111, 11.555555, 12, 12.444445, 12.888889, 13.333333, 13.777778, 14.222222, 14.666667, 15.111111, 15.555555, 16, 16.444445, 16.88889, 17.333334, 17.777779, 18.222221, 18.666666, 19.11111, 19.555555, 20, 20.444445, 20.88889, 21.333334, 21.777779, 22.222221, 22.666666, 23.11111, 23.555555, 24, 24.444445, 24.88889, 25.333334, 25.777779, 26.222221, 26.666666, 27.11111, 27.555555, 28, 28.444445, 28.88889, 29.333334, 29.777779, 30.222221, 30.666666, 31.11111, 31.555555, 32, 32.444443, 32.88889, 33.333332, 33.77778, 34.22222, 34.666668, 35.11111, 35.555557, 36, 36.444443, 36.88889, 37.333332, 37.77778, 38.22222, 38.666668, 39.11111, 39.555557, 40, 40.444443, 40.88889, 41.333332, 41.77778, 42.22222, 42.666668, 43.11111, 43.555557, 44, 44.444443, 44.88889, 45.333332, 45.77778, 46.22222, 46.666668, 47.11111, 47.555557, 48, 48.444443, 48.88889, 49.333332, 49.77778, 50.22222, 50.666668, 51.11111, 51.555557, 52, 52.444443, 52.88889, 53.333332, 53.77778, 54.22222, 54.666668, 55.11111, 55.555557, 56, 56.444443, 56.88889, 57.333332, 57.77778, 58.22222, 58.666668, 59.11111, 59.555557, 60, 60.444443, 60.88889, 61.333332, 61.77778, 62.22222, 62.666668, 63.11111, 63.555557, 64, 64.44444, 64.888885, 65.333336, 65.77778, 66.22222, 66.666664, 67.111115, 67.55556, 68, 68.44444, 68.888885, 69.333336, 69.77778, 70.22222, 70.666664, 71.111115, 71.55556, 72, 72.44444, 72.888885, 73.333336, 73.77778, 74.22222, 74.666664, 75.111115, 75.55556, 76, 76.44444, 76.888885, 77.333336, 77.77778, 78.22222, 78.666664, 79.111115, 79.55556, 80, 80.44444, 80.888885, 81.333336, 81.77778, 82.22222, 82.666664, 83.111115, 83.55556, 84, 84.44444, 84.888885, 85.333336, 85.77778, 86.22222, 86.666664, 87.111115, 87.55556, 88, 88.44444, 88.888885, 89.333336, 89.77778, 90.22222, 90.666664, 91.111115, 91.55556, 92, 92.44444, 92.888885, 93.333336, 93.77778, 94.22222, 94.666664, 95.111115, 95.55556, 96, 96.44444, 96.888885, 97.333336, 97.77778, 98.22222, 98.666664, 99.111115, 99.55556, 100, 100.44444, 100.888885, 101.333336, 101.77778, 102.22222, 102.666664, 103.111115, 103.55556, 104, 104.44444, 104.888885, 105.333336, 105.77778, 106.22222, 106.666664, 107.111115, 107.55556, 108, 108.44444, 108.888885, 109.333336, 109.77778, 110.22222, 110.666664, 111.111115, 111.55556, 112, 112.44444, 112.888885, 113.333336, 113.77778, 114.22222, 114.666664, 115.111115, 115.55556, 116, 116.44444, 116.888885, 117.333336, 117.77778, 118.22222, 118.666664, 119.111115, 119.55556, 120]
    custom uint[] omni:sensor:Core:emitterState:s001:channelId = [1, 1, 1, 1, 1, 1, 1, 1, 1, 1, 1, 1, 1, 1, 1, 1, 1, 1, 1, 1, 1, 1, 1, 1, 1, 1, 1, 1, 1, 1, 1, 1, 1, 1, 1, 1, 1, 1, 1, 1, 1, 1, 1, 1, 1, 1, 1, 1, 1, 1, 1, 1, 1, 1, 1, 1, 1, 1, 1, 1, 1, 1, 1, 1, 1, 1, 1, 1, 1, 1, 1, 1, 1, 1, 1, 1, 1, 1, 1, 1, 1, 1, 1, 1, 1, 1, 1, 1, 1, 1, 1, 1, 1, 1, 1, 1, 1, 1, 1, 1, 1, 1, 1, 1, 1, 1, 1, 1, 1, 1, 1, 1, 1, 1, 1, 1, 1, 1, 1, 1, 1, 1, 1, 1, 1, 1, 1, 1, 1, 1, 1, 1, 1, 1, 1, 1, 1, 1, 1, 1, 1, 1, 1, 1, 1, 1, 1, 1, 1, 1, 1, 1, 1, 1, 1, 1, 1, 1, 1, 1, 1, 1, 1, 1, 1, 1, 1, 1, 1, 1, 1, 1, 1, 1, 1, 1, 1, 1, 1, 1, 1, 1, 1, 1, 1, 1, 1, 1, 1, 1, 1, 1, 1, 1, 1, 1, 1, 1, 1, 1, 1, 1, 1, 1, 1, 1, 1, 1, 1, 1, 1, 1, 1, 1, 1, 1, 1, 1, 1, 1, 1, 1, 1, 1, 1, 1, 1, 1, 1, 1, 1, 1, 1, 1, 1, 1, 1, 1, 1, 1, 1, 1, 1, 1, 1, 1, 1, 1, 1, 1, 1, 1, 1, 1, 1, 1, 1, 1, 1, 1, 1, 1, 1, 1, 1, 1, 1, 1, 1, 1, 1, 1, 1, 1, 1, 1, 1, 1, 1, 1, 1, 1, 1, 1, 1, 1, 1, 1, 1, 1, 1, 1, 1, 1, 1, 1, 1, 1, 1, 1, 1, 1, 1, 1, 1, 1, 1, 1, 1, 1, 1, 1, 1, 1, 1, 1, 1, 1, 1, 1, 1, 1, 1, 1, 1, 1, 1, 1, 1, 1, 1, 1, 1, 1, 1, 1, 1, 1, 1, 1, 1, 1, 1, 1, 1, 1, 1, 1, 1, 1, 1, 1, 1, 1, 1, 1, 1, 1, 1, 1, 1, 1, 1, 1, 1, 1, 1, 1, 1, 1, 1, 1, 1, 1, 1, 1, 1, 1, 1, 1, 1, 1, 1, 1, 1, 1, 1, 1, 1, 1, 1, 1, 1, 1, 1, 1, 1, 1, 1, 1, 1, 1, 1, 1, 1, 1, 1, 1, 1, 1, 1, 1, 1, 1, 1, 1, 1, 1, 1, 1, 1, 1, 1, 1, 1, 1, 1, 1, 1, 1, 1, 1, 1, 1, 1, 1, 1, 1, 1, 1, 1, 1, 1, 1, 1, 1, 1, 1, 1, 1, 1, 1, 1, 1, 1, 1, 1, 1, 1, 1, 1, 1, 1, 1, 1, 1, 1, 1, 1, 1, 1, 1, 1, 1, 1, 1, 1, 1, 1, 1, 1, 1, 1, 1, 1, 1, 1, 1, 1, 1, 1, 1, 1, 1, 1, 1, 1, 1, 1, 1, 1, 1, 1, 1, 1, 1, 1, 1, 1, 1, 1, 1, 1, 1, 1, 1, 1, 1, 1, 1, 1, 1, 1, 1, 1, 1, 1, 1, 1, 1, 1, 1, 1, 1, 1, 1, 1, 1, 1, 1, 1]
    custom float[] omni:sensor:Core:emitterState:s001:elevationDeg = [0, 0, 0, 0, 0, 0, 0, 0, 0, 0, 0, 0, 0, 0, 0, 0, 0, 0, 0, 0, 0, 0, 0, 0, 0, 0, 0, 0, 0, 0, 0, 0, 0, 0, 0, 0, 0, 0, 0, 0, 0, 0, 0, 0, 0, 0, 0, 0, 0, 0, 0, 0, 0, 0, 0, 0, 0, 0, 0, 0, 0, 0, 0, 0, 0, 0, 0, 0, 0, 0, 0, 0, 0, 0, 0, 0, 0, 0, 0, 0, 0, 0, 0, 0, 0, 0, 0, 0, 0, 0, 0, 0, 0, 0, 0, 0, 0, 0, 0, 0, 0, 0, 0, 0, 0, 0, 0, 0, 0, 0, 0, 0, 0, 0, 0, 0, 0, 0, 0, 0, 0, 0, 0, 0, 0, 0, 0, 0, 0, 0, 0, 0, 0, 0, 0, 0, 0, 0, 0, 0, 0, 0, 0, 0, 0, 0, 0, 0, 0, 0, 0, 0, 0, 0, 0, 0, 0, 0, 0, 0, 0, 0, 0, 0, 0, 0, 0, 0, 0, 0, 0, 0, 0, 0, 0, 0, 0, 0, 0, 0, 0, 0, 0, 0, 0, 0, 0, 0, 0, 0, 0, 0, 0, 0, 0, 0, 0, 0, 0, 0, 0, 0, 0, 0, 0, 0, 0, 0, 0, 0, 0, 0, 0, 0, 0, 0, 0, 0, 0, 0, 0, 0, 0, 0, 0, 0, 0, 0, 0, 0, 0, 0, 0, 0, 0, 0, 0, 0, 0, 0, 0, 0, 0, 0, 0, 0, 0, 0, 0, 0, 0, 0, 0, 0, 0, 0, 0, 0, 0, 0, 0, 0, 0, 0, 0, 0, 0, 0, 0, 0, 0, 0, 0, 0, 0, 0, 0, 0, 0, 0, 0, 0, 0, 0, 0, 0, 0, 0, 0, 0, 0, 0, 0, 0, 0, 0, 0, 0, 0, 0, 0, 0, 0, 0, 0, 0, 0, 0, 0, 0, 0, 0, 0, 0, 0, 0, 0, 0, 0, 0, 0, 0, 0, 0, 0, 0, 0, 0, 0, 0, 0, 0, 0, 0, 0, 0, 0, 0, 0, 0, 0, 0, 0, 0, 0, 0, 0, 0, 0, 0, 0, 0, 0, 0, 0, 0, 0, 0, 0, 0, 0, 0, 0, 0, 0, 0, 0, 0, 0, 0, 0, 0, 0, 0, 0, 0, 0, 0, 0, 0, 0, 0, 0, 0, 0, 0, 0, 0, 0, 0, 0, 0, 0, 0, 0, 0, 0, 0, 0, 0, 0, 0, 0, 0, 0, 0, 0, 0, 0, 0, 0, 0, 0, 0, 0, 0, 0, 0, 0, 0, 0, 0, 0, 0, 0, 0, 0, 0, 0, 0, 0, 0, 0, 0, 0, 0, 0, 0, 0, 0, 0, 0, 0, 0, 0, 0, 0, 0, 0, 0, 0, 0, 0, 0, 0, 0, 0, 0, 0, 0, 0, 0, 0, 0, 0, 0, 0, 0, 0, 0, 0, 0, 0, 0, 0, 0, 0, 0, 0, 0, 0, 0, 0, 0, 0, 0, 0, 0, 0, 0, 0, 0, 0, 0, 0, 0, 0, 0, 0, 0, 0, 0, 0, 0, 0, 0, 0, 0, 0, 0, 0, 0, 0, 0, 0, 0, 0, 0, 0, 0, 0, 0, 0, 0, 0, 0, 0, 0, 0, 0, 0, 0, 0, 0, 0, 0, 0, 0, 0, 0, 0]
    custom uint[] omni:sensor:Core:emitterState:s001:fireTimeNs = [0, 147874, 295748, 443622, 591496, 739370, 887244, 1035118, 1182992, 1330866, 1478740, 1626614, 1774488, 1922362, 2070236, 2218110, 2365984, 2513858, 2661732, 2809606, 2957480, 3105354, 3253228, 3401102, 3548976, 3696850, 3844724, 3992598, 4140472, 4288346, 4436220, 4584094, 4731968, 4879842, 5027716, 5175590, 5323464, 5471338, 5619212, 5767086, 5914960, 6062834, 6210708, 6358582, 6506456, 6654330, 6802204, 6950078, 7097952, 7245826, 7393700, 7541574, 7689448, 7837322, 7985196, 8133070, 8280944, 8428818, 8576692, 8724566, 8872440, 9020314, 9168188, 9316062, 9463936, 9611810, 9759684, 9907558, 10055432, 10203306, 10351180, 10499054, 10646928, 10794802, 10942676, 11090550, 11238424, 11386298, 11534172, 11682046, 11829920, 11977794, 12125668, 12273542, 12421416, 12569290, 12717164, 12865038, 13012912, 13160786, 13308660, 13456534, 13604408, 13752282, 13900156, 14048030, 14195904, 14343778, 14491652, 14639526, 14787400, 14935274, 15083148, 15231022, 15378896, 15526770, 15674644, 15822518, 15970392, 16118266, 16266140, 16414014, 16561888, 16709762, 16857636, 17005510, 17153384, 17301258, 17449132, 17597006, 17744880, 17892754, 18040628, 18188502, 18336376, 18484250, 18632124, 18779998, 18927872, 19075746, 19223620, 19371494, 19519368, 19667242, 19815116, 19962990, 20110864, 20258738, 20406612, 20554486, 20702360, 20850234, 20998108, 21145982, 21293856, 21441730, 21589604, 21737478, 21885352, 22033226, 22181100, 22328974, 22476848, 22624722, 22772596, 22920470, 23068344, 23216218, 23364092, 23511966, 23659840, 23807714, 23955588, 24103462, 24251336, 24399210, 24547084, 24694958, 24842832, 24990706, 25138580, 25286454, 25434328, 25582202, 25730076, 25877950, 26025824, 26173698, 26321572, 26469446, 26617320, 26765194, 26913068, 27060942, 27208816, 27356690, 27504564, 27652438, 27800312, 27948186, 28096060, 28243934, 28391808, 28539682, 28687556, 28835430, 28983304, 29131178, 29279052, 29426926, 29574800, 29722674, 29870548, 30018422, 30166296, 30314170, 30462044, 30609918, 30757792, 30905666, 31053540, 31201414, 31349288, 31497162, 31645036, 31792910, 31940784, 32088658, 32236532, 32384406, 32532280, 32680154, 32828028, 32975902, 33123776, 33271650, 33419524, 33567398, 33715272, 33863146, 34011020, 34158894, 34306768, 34454642, 34602516, 34750390, 34898264, 35046138, 35194012, 35341886, 35489760, 35637634, 35785508, 35933382, 36081256, 36229130, 36377004, 36524878, 36672752, 36820626, 36968500, 37116374, 37264248, 37412122, 37559996, 37707870, 37855744, 38003618, 38151492, 38299366, 38447240, 38595114, 38742988, 38890862, 39038736, 39186610, 39334484, 39482358, 39630232, 39778106, 39925980, 40073854, 40221728, 40369602, 40517476, 40665350, 40813224, 40961098, 41108972, 41256846, 41404720, 41552594, 41700468, 41848342, 41996216, 42144090, 42291964, 42439838, 42587712, 42735586, 42883460, 43031334, 43179208, 43327082, 43474956, 43622830, 43770704, 43918578, 44066452, 44214326, 44362200, 44510074, 44657948, 44805822, 44953696, 45101570, 45249444, 45397318, 45545192, 45693066, 45840940, 45988814, 46136688, 46284562, 46432436, 46580310, 46728184, 46876058, 47023932, 47171806, 47319680, 47467554, 47615428, 47763302, 47911176, 48059050, 48206924, 48354798, 48502672, 48650546, 48798420, 48946294, 49094168, 49242042, 49389916, 49537790, 49685664, 49833538, 49981412, 50129286, 50277160, 50425034, 50572908, 50720782, 50868656, 51016530, 51164404, 51312278, 51460152, 51608026, 51755900, 51903774, 52051648, 52199522, 52347396, 52495270, 52643144, 52791018, 52938892, 53086766, 53234640, 53382514, 53530388, 53678262, 53826136, 53974010, 54121884, 54269758, 54417632, 54565506, 54713380, 54861254, 55009128, 55157002, 55304876, 55452750, 55600624, 55748498, 55896372, 56044246, 56192120, 56339994, 56487868, 56635742, 56783616, 56931490, 57079364, 57227238, 57375112, 57522986, 57670860, 57818734, 57966608, 58114482, 58262356, 58410230, 58558104, 58705978, 58853852, 59001726, 59149600, 59297474, 59445348, 59593222, 59741096, 59888970, 60036844, 60184718, 60332592, 60480466, 60628340, 60776214, 60924088, 61071962, 61219836, 61367710, 61515584, 61663458, 61811332, 61959206, 62107080, 62254954, 62402828, 62550702, 62698576, 62846450, 62994324, 63142198, 63290072, 63437946, 63585820, 63733694, 63881568, 64029442, 64177316, 64325190, 64473064, 64620938, 64768812, 64916686, 65064560, 65212434, 65360308, 65508182, 65656056, 65803930, 65951804, 66099678, 66247552, 66395426, 66543300, 66691174, 66839048, 66986922, 67134796, 67282670, 67430544, 67578418, 67726292, 67874166, 68022040, 68169914, 68317788, 68465662, 68613536, 68761410, 68909284, 69057158, 69205032, 69352906, 69500780, 69648654, 69796528, 69944402, 70092276, 70240150, 70388024, 70535898, 70683772, 70831646, 70979520, 71127394, 71275268, 71423142, 71571016, 71718890, 71866764, 72014638, 72162512, 72310386, 72458260, 72606134, 72754008, 72901882, 73049756, 73197630, 73345504, 73493378, 73641252, 73789126, 73937000, 74084874, 74232748, 74380622, 74528496, 74676370, 74824244, 74972118, 75119992, 75267866, 75415740, 75563614, 75711488, 75859362, 76007236, 76155110, 76302984, 76450858, 76598732, 76746606, 76894480, 77042354, 77190228, 77338102, 77485976, 77633850, 77781724, 77929598, 78077472, 78225346, 78373220, 78521094, 78668968, 78816842, 78964716, 79112590, 79260464, 79408338, 79556212, 79704086, 79851960]
    custom uint omni:sensor:Core:emitterStateCount = 1
    custom float omni:sensor:Core:farRangeM = 29
    custom uint omni:sensor:Core:maxReturns = 1
    custom float omni:sensor:Core:nearRangeM = 0.05
    custom uint omni:sensor:Core:numberOfChannels = 1
    custom uint omni:sensor:Core:numberOfEmitters = 541
    custom uint omni:sensor:Core:numLines = 1
    custom uint[] omni:sensor:Core:numRaysPerLine = [541]
    custom uint omni:sensor:Core:reportRateBaseHz = 12
    custom uint omni:sensor:Core:scanRateBaseHz = 12
    custom token omni:sensor:Core:scanType = "solidState"
}

